<svg id="Layer_1" data-name="Layer 1" xmlns="http://www.w3.org/2000/svg" width="1.29in" height="0.86in" viewBox="0 0 92.56 62.11"><path d="M60.82,31.61,50.77,49a4.34,4.34,0,0,0,3.76,6.51h20.1A4.34,4.34,0,0,0,78.39,49l-10-17.41A4.34,4.34,0,0,0,60.82,31.61Z" fill="#bcbec0" stroke="#231f20" stroke-miterlimit="10" stroke-width="0.25" opacity="0.5"/><path d="M64,15.84,58.62,6.46a4.15,4.15,0,0,0-7.2,0L26.69,49.29a4.16,4.16,0,0,0,3.6,6.24H41.13a4.17,4.17,0,0,0,3.6-2.08L64,20A4.18,4.18,0,0,0,64,15.84Z" fill="#a7a9ac" stroke="#231f20" stroke-miterlimit="10" stroke-width="0.25" opacity="0.5"/><path d="M29.45,35.09,27.09,31a4,4,0,0,0-7,0L9.43,49.45a4.05,4.05,0,0,0,3.51,6.08h4.7a4,4,0,0,0,3.51-2l8.3-14.37A4.07,4.07,0,0,0,29.45,35.09Z" fill="#939598" stroke="#231f20" stroke-miterlimit="10" stroke-width="0.25" opacity="0.5"/><path d="M67.07,30.64,57,48.05a4.34,4.34,0,0,0,3.76,6.51h20.1a4.34,4.34,0,0,0,3.76-6.51l-10-17.41A4.34,4.34,0,0,0,67.07,30.64Z" fill="#f26522"/><path d="M70.29,14.87,64.87,5.49a4.16,4.16,0,0,0-7.2,0L32.94,48.33a4.15,4.15,0,0,0,3.6,6.23H47.38A4.17,4.17,0,0,0,51,52.48L70.29,19A4.18,4.18,0,0,0,70.29,14.87Z" fill="#27aae1"/><path d="M35.7,34.12,33.34,30a4.05,4.05,0,0,0-7,0L15.68,48.49a4,4,0,0,0,3.51,6.07h4.7a4,4,0,0,0,3.51-2l8.3-14.37A4.07,4.07,0,0,0,35.7,34.12Z" fill="#ed1c24"/></svg>