<?xml version="1.0" encoding="UTF-8"?><svg id="Layer_1" xmlns="http://www.w3.org/2000/svg" viewBox="0 0 199.14 199.14"><path d="m170.69,0H28.45C12.8,0,0,12.8,0,28.45v142.24c0,15.65,12.8,28.45,28.45,28.45h142.24c15.65,0,28.45-12.8,28.45-28.45V28.45c0-15.65-12.8-28.45-28.45-28.45Zm-34.85,50.85c0,1.42-.71,2.13-2.13,2.13h-15.65c-4.27,0-7.11,2.84-7.11,6.4v14.94h22.05c1.42,0,2.13.71,2.13,2.13l-2.13,21.34c0,.71-1.42,1.42-2.13,1.42h-19.91v69.7c0,1.42-.71,2.13-2.13,2.13h-27.74c-1.42,0-2.13-1.42-2.13-2.13v-68.99h-13.51c-1.42,0-2.13-1.42-2.13-2.13v-21.34c0-1.42.71-2.13,2.13-2.13h13.51v-20.63c0-14.22,12.8-25.6,27.74-25.6h25.6c1.42,0,2.13.71,3.56,2.13v20.63Z"/></svg>