<svg id="Layer_1" data-name="Layer 1" xmlns="http://www.w3.org/2000/svg" width="6.04in" height="0.73in" viewBox="0 0 434.8 52.25"><path d="M60.82,31.61,50.77,49a4.34,4.34,0,0,0,3.76,6.51h20.1A4.34,4.34,0,0,0,78.39,49l-10-17.41A4.34,4.34,0,0,0,60.82,31.61Z" transform="translate(-8.75 -3.41)" fill="#fff" stroke="#231f20" stroke-miterlimit="10" stroke-width="0.25" opacity="0.5"/><path d="M64,15.84,58.62,6.46a4.15,4.15,0,0,0-7.2,0L26.69,49.29a4.16,4.16,0,0,0,3.6,6.24H41.13a4.17,4.17,0,0,0,3.6-2.08L64,20A4.18,4.18,0,0,0,64,15.84Z" transform="translate(-8.75 -3.41)" fill="#fff" stroke="#231f20" stroke-miterlimit="10" stroke-width="0.25" opacity="0.5"/><path d="M29.45,35.09,27.09,31a4,4,0,0,0-7,0L9.43,49.45a4.05,4.05,0,0,0,3.51,6.08h4.7a4,4,0,0,0,3.51-2l8.3-14.37A4.07,4.07,0,0,0,29.45,35.09Z" transform="translate(-8.75 -3.41)" fill="#fff" stroke="#231f20" stroke-miterlimit="10" stroke-width="0.25" opacity="0.5"/><path d="M67.07,30.64,57,48.05a4.34,4.34,0,0,0,3.76,6.51h20.1a4.34,4.34,0,0,0,3.76-6.51l-10-17.41A4.34,4.34,0,0,0,67.07,30.64Z" transform="translate(-8.75 -3.41)" fill="#f26522"/><path d="M70.29,14.87,64.87,5.49a4.16,4.16,0,0,0-7.2,0L32.94,48.33a4.15,4.15,0,0,0,3.6,6.23H47.38A4.17,4.17,0,0,0,51,52.48L70.29,19A4.18,4.18,0,0,0,70.29,14.87Z" transform="translate(-8.75 -3.41)" fill="#27aae1"/><path d="M35.7,34.12,33.34,30a4.05,4.05,0,0,0-7,0L15.68,48.49a4,4,0,0,0,3.51,6.07h4.7a4,4,0,0,0,3.51-2l8.3-14.37A4.07,4.07,0,0,0,35.7,34.12Z" transform="translate(-8.75 -3.41)" fill="#ed1c24"/><path d="M105.46,31.94c0-3.06-.07-5.58-.27-8h5.21l.27,4.78h.21a11.46,11.46,0,0,1,10.28-5.45,9.67,9.67,0,0,1,9.28,6h.13a12.64,12.64,0,0,1,3.66-3.87,12,12,0,0,1,7.24-2.08c4.33,0,10.76,2.57,10.76,12.87V53.58h-5.82V36.78c0-5.7-2.3-9.13-7.1-9.13a7.62,7.62,0,0,0-7,4.9,7.93,7.93,0,0,0-.48,2.7V53.58H126V35.8c0-4.72-2.3-8.15-6.84-8.15A8,8,0,0,0,111.76,33a6.81,6.81,0,0,0-.48,2.64v17.9h-5.82Z" transform="translate(-8.75 -3.41)" fill="#fff"/><path d="M105.46,31.94h.45c0-3.07-.07-5.6-.28-8.06l-.44,0v.44H110l.25,4.37,0,.41h.87l.13-.2a11.05,11.05,0,0,1,9.91-5.25A9.24,9.24,0,0,1,130,29.35l.11.28h.68l.13-.21a12.41,12.41,0,0,1,3.52-3.73,11.6,11.6,0,0,1,7-2c4.17.05,10.28,2.35,10.32,12.43v17h-4.94V36.78a11.55,11.55,0,0,0-1.84-7,6.73,6.73,0,0,0-5.7-2.6,8.08,8.08,0,0,0-7.46,5.18,8.63,8.63,0,0,0-.5,2.86V53.13h-4.94V35.8a9.8,9.8,0,0,0-1.81-6.12,6.66,6.66,0,0,0-5.47-2.47,8.43,8.43,0,0,0-7.79,5.69l.42.14-.41-.17a7.22,7.22,0,0,0-.51,2.81V53.13h-4.93V31.94H105V54h6.7V35.68a6.16,6.16,0,0,1,.45-2.46v0h0a7.55,7.55,0,0,1,6.95-5.1c4.27,0,6.35,3.11,6.4,7.71V54h6.71V35.25a7.74,7.74,0,0,1,.44-2.54,7.19,7.19,0,0,1,6.63-4.62,5.85,5.85,0,0,1,5,2.26A10.63,10.63,0,0,1,146,36.78V54h6.7V36.11c0-5.24-1.64-8.6-3.9-10.63a11,11,0,0,0-7.3-2.68A12.41,12.41,0,0,0,134,25a13,13,0,0,0-3.78,4l.37.24v-.45h-.13v.45l.41-.17a10.1,10.1,0,0,0-9.69-6.22,12,12,0,0,0-10.66,5.65l.38.24v-.44h-.21v.44l.44,0-.26-4.78,0-.42h-6.11l0,.48c.2,2.43.27,4.93.27,8Z" transform="translate(-8.75 -3.41)" fill="#fff"/><path d="M166.66,15.58c.07,1.84-1.42,3.31-3.79,3.31a3.37,3.37,0,0,1-3.58-3.31A3.46,3.46,0,0,1,163,12.21,3.37,3.37,0,0,1,166.66,15.58Zm-6.63,38V23.91h6V53.58Z" transform="translate(-8.75 -3.41)" fill="#fff"/><path d="M166.66,15.58l-.44,0v.1c0,1.51-1.21,2.73-3.35,2.75a2.93,2.93,0,0,1-3.14-2.87A3,3,0,0,1,163,12.65a2.93,2.93,0,0,1,3.21,2.93h0l.44,0h.44A3.69,3.69,0,0,0,166,12.86a4.2,4.2,0,0,0-3-1.09,4.29,4.29,0,0,0-3,1.08,3.64,3.64,0,0,0-1.19,2.73,3.82,3.82,0,0,0,4,3.75,4.61,4.61,0,0,0,3.06-1,3.41,3.41,0,0,0,1.18-2.6v-.14l-.44,0h0Zm-6.63,38h.44V24.35h5.07V53.13H160v.45h0V54h6.4V23.47h-6.84V54H160Z" transform="translate(-8.75 -3.41)" fill="#fff"/><rect x="165.09" y="6.66" width="5.96" height="43.51" fill="#fff"/><polygon points="165.09 6.66 165.09 7.1 170.61 7.1 170.61 49.72 165.54 49.72 165.54 6.66 165.09 6.66 165.09 7.1 165.09 6.66 164.65 6.66 164.65 50.61 171.49 50.61 171.49 6.21 164.65 6.21 164.65 6.66 165.09 6.66" fill="#fff"/><path d="M191.58,39.72c.14,7.3,5.28,10.3,11.24,10.3a23.47,23.47,0,0,0,9.07-1.53l1,3.86A28.87,28.87,0,0,1,202,54.19c-10.09,0-16.11-6-16.11-14.95s5.82-16,15.36-16c10.7,0,13.54,8.52,13.54,14a19.9,19.9,0,0,1-.2,2.51Zm17.47-3.86c.06-3.43-1.56-8.76-8.26-8.76-6,0-8.67,5-9.14,8.76Z" transform="translate(-8.75 -3.41)" fill="#fff"/><path d="M191.58,39.72h-.44c.11,7.55,5.59,10.78,11.68,10.73a23.88,23.88,0,0,0,9.23-1.56l-.16-.41-.43.11,1,3.86.43-.11-.17-.42A28.35,28.35,0,0,1,202,53.74c-9.91,0-15.64-5.78-15.67-14.5S192,23.7,201.26,23.68c5.23,0,8.44,2.06,10.42,4.76a15.32,15.32,0,0,1,2.67,8.77,17.87,17.87,0,0,1-.2,2.46l.45,0v-.44H191.13v.45h.44v.45H215l0-.39a20.22,20.22,0,0,0,.2-2.57,16.11,16.11,0,0,0-2.84-9.29c-2.12-2.92-5.68-5.13-11.14-5.12a15.34,15.34,0,0,0-11.59,4.78,17,17,0,0,0-4.21,11.66,14.91,14.91,0,0,0,4.4,11.15c2.87,2.71,7,4.24,12.15,4.24a29.38,29.38,0,0,0,11.06-1.87l.36-.15-1.12-4.23-.12-.48-.46.17a23,23,0,0,1-8.91,1.51c-5.83,0-10.63-2.82-10.8-9.86h-.44v0Zm17.47-3.86h.44v-.2a10,10,0,0,0-1.75-5.83,8.05,8.05,0,0,0-7-3.18c-6.33,0-9.11,5.29-9.58,9.15l-.06.49h18.33v-.43h-.44v-.44h-17.4v.44l.44.06c.48-3.62,3-8.38,8.7-8.38,3.17,0,5.06,1.21,6.23,2.81a9.26,9.26,0,0,1,1.58,5.32v.18h.45v0Z" transform="translate(-8.75 -3.41)" fill="#fff"/><path d="M219.52,48.06a16.8,16.8,0,0,0,7.85,2.14c4.33,0,6.36-2,6.36-4.41s-1.68-4-6.08-5.45c-5.89-1.9-8.67-4.85-8.67-8.4,0-4.78,4.26-8.7,11.3-8.7a17.73,17.73,0,0,1,8.06,1.84L236.85,29a13.72,13.72,0,0,0-6.7-1.71c-3.52,0-5.48,1.83-5.48,4,0,2.45,2,3.55,6.22,5,5.69,2,8.6,4.53,8.6,8.94,0,5.21-4.47,8.89-12.25,8.89a20.2,20.2,0,0,1-9.21-2Z" transform="translate(-8.75 -3.41)" fill="#fff"/><path d="M219.52,48.06l-.22.38a17.16,17.16,0,0,0,8.07,2.2,8.3,8.3,0,0,0,5.07-1.37,4.26,4.26,0,0,0,1.74-3.48,4.35,4.35,0,0,0-1.55-3.47,14,14,0,0,0-4.85-2.4c-5.82-1.9-8.36-4.7-8.36-8,0-4.48,4-8.24,10.86-8.26a17.33,17.33,0,0,1,7.85,1.79l.21-.39-.42-.16-1.49,3.92.42.16.22-.39a14.23,14.23,0,0,0-6.92-1.77,6.92,6.92,0,0,0-4.34,1.29,4,4,0,0,0-1.58,3.2,3.79,3.79,0,0,0,1.68,3.23,18.46,18.46,0,0,0,4.84,2.22c5.64,2,8.28,4.36,8.3,8.52,0,4.91-4.15,8.41-11.81,8.44a19.75,19.75,0,0,1-9-2l-.21.39.42.16,1.49-4.11-.42-.15-.22.38.22-.38-.41-.15L217.62,52l-.14.37.35.17a20.59,20.59,0,0,0,9.41,2.08c4,0,7.12-.93,9.31-2.58a8.2,8.2,0,0,0,3.38-6.75c0-4.66-3.16-7.42-8.89-9.36a17.64,17.64,0,0,1-4.59-2.09,2.9,2.9,0,0,1-1.34-2.52c0-1.91,1.66-3.58,5-3.6a13.23,13.23,0,0,1,6.48,1.66l.45.25,1.81-4.77-.35-.18a18.05,18.05,0,0,0-8.26-1.89,13.46,13.46,0,0,0-8.57,2.65,8.31,8.31,0,0,0-3.17,6.49c0,3.83,3,6.91,9,8.82A13.17,13.17,0,0,1,232.05,43a3.44,3.44,0,0,1,1.24,2.8c0,2.16-1.7,3.93-5.92,4a16.28,16.28,0,0,1-7.62-2.08l-.46-.27-.18.5Z" transform="translate(-8.75 -3.41)" fill="#fff"/><path d="M253.18,15.4v8.51h8.53V28h-8.53V44c0,3.67,1.15,5.75,4.47,5.75a14.86,14.86,0,0,0,3.45-.36l.27,4a15.93,15.93,0,0,1-5.28.74,8.73,8.73,0,0,1-6.43-2.27c-1.69-1.6-2.3-4.23-2.3-7.72V28h-5.07V23.91h5.07v-7.1Z" transform="translate(-8.75 -3.41)" fill="#fff"/><path d="M253.18,15.4h-.44v9h8.53v3.23h-8.53V44a7.7,7.7,0,0,0,1.07,4.51,4.42,4.42,0,0,0,3.84,1.69,14.62,14.62,0,0,0,3.56-.39l-.11-.42-.44,0,.27,4,.44,0-.15-.42a15.45,15.45,0,0,1-5.13.71A8.28,8.28,0,0,1,250,51.61h0c-1.55-1.44-2.17-3.94-2.17-7.39V27.58h-5.07V24.35h5.07V17.16l5.48-1.34-.1-.42h0l-.1-.44-6.16,1.5v7h-5.08v5h5.08V44.2c0,3.53.6,6.3,2.44,8l.3-.32-.32.3a9.16,9.16,0,0,0,6.75,2.41,16.56,16.56,0,0,0,5.44-.76l.3-.12-.29-4.37,0-.53L261,49a14.42,14.42,0,0,1-3.34.35A3.52,3.52,0,0,1,254.53,48a6.94,6.94,0,0,1-.91-4V28.46h8.53v-5h-8.53V14.83l-.54.13Z" transform="translate(-8.75 -3.41)" fill="#fff"/><path d="M295.66,38.5c0,11-8.39,15.75-16.31,15.75-8.87,0-15.71-5.89-15.71-15.26,0-9.93,7.18-15.75,16.25-15.75C289.3,23.24,295.66,29.43,295.66,38.5Zm-26,.31c0,6.49,4.13,11.39,9.95,11.39s9.95-4.84,9.95-11.52c0-5-2.78-11.39-9.81-11.39S269.67,33.17,269.67,38.81Z" transform="translate(-8.75 -3.41)" fill="#fff"/><path d="M295.66,38.5h-.44c0,10.7-8.11,15.27-15.87,15.31-8.67,0-15.24-5.69-15.26-14.82,0-9.69,6.91-15.28,15.8-15.31,9.2,0,15.3,6,15.33,14.82h.88a15.44,15.44,0,0,0-4.49-11.35,16.5,16.5,0,0,0-11.72-4.35,17.26,17.26,0,0,0-11.83,4.26A15.75,15.75,0,0,0,263.2,39a15.34,15.34,0,0,0,4.67,11.47,16.55,16.55,0,0,0,11.48,4.23,17.94,17.94,0,0,0,11.41-3.86c3.18-2.65,5.35-6.73,5.34-12.33Zm-26,.31h-.44a12.76,12.76,0,0,0,2.9,8.42,9.89,9.89,0,0,0,14.93,0A13,13,0,0,0,290,38.68a13.85,13.85,0,0,0-2.35-7.84,9.27,9.27,0,0,0-7.9-4,9.62,9.62,0,0,0-8,3.83,13.55,13.55,0,0,0-2.49,8.14h.88c0-5.52,2.91-11.08,9.65-11.08a8.38,8.38,0,0,1,7.18,3.63,13,13,0,0,1,2.18,7.32c0,6.5-4.1,11.08-9.5,11.08-5.55,0-9.49-4.64-9.51-10.95Z" transform="translate(-8.75 -3.41)" fill="#fff"/><path d="M301.61,31.94c0-3.06-.07-5.58-.27-8h5.28l.33,4.91h.14c1.62-2.82,5.42-5.58,10.83-5.58,4.54,0,11.57,2.45,11.57,12.62V53.58h-5.95V36.48c0-4.78-2-8.77-7.58-8.77a8.37,8.37,0,0,0-8,5.52,7.07,7.07,0,0,0-.4,2.51V53.58h-6Z" transform="translate(-8.75 -3.41)" fill="#fff"/><path d="M301.61,31.94h.44c0-3.07-.07-5.59-.27-8.06l-.44,0v.44h4.86l.31,4.5,0,.41h.8l.13-.22c1.54-2.68,5.19-5.36,10.45-5.36a11.61,11.61,0,0,1,7.21,2.4c2.21,1.8,3.91,4.79,3.92,9.78V53.13H324V36.48A10.69,10.69,0,0,0,322.21,30,7.31,7.31,0,0,0,316,27.27a8.8,8.8,0,0,0-8.41,5.82l.42.14-.41-.16a7.44,7.44,0,0,0-.44,2.67V53.13h-5.07V31.94h-.88V54H308V35.74a6.74,6.74,0,0,1,.37-2.35h0A7.93,7.93,0,0,1,316,28.16a6.45,6.45,0,0,1,5.54,2.41,9.84,9.84,0,0,1,1.6,5.91V54h6.83V35.86c0-5.18-1.81-8.5-4.24-10.47a12.53,12.53,0,0,0-7.77-2.59c-5.57,0-9.51,2.84-11.22,5.8l.39.22v-.44H307v.44l.45,0-.34-4.91,0-.41h-6.17l0,.48c.2,2.43.27,4.93.27,8Z" transform="translate(-8.75 -3.41)" fill="#fff"/><path d="M341,39.72c.13,7.3,5.28,10.3,11.23,10.3a23.43,23.43,0,0,0,9.07-1.53l1,3.86a28.82,28.82,0,0,1-10.89,1.84c-10.08,0-16.11-6-16.11-14.95s5.82-16,15.37-16c10.69,0,13.53,8.52,13.53,14a18.16,18.16,0,0,1-.2,2.51Zm17.46-3.86c.07-3.43-1.56-8.76-8.26-8.76-6,0-8.66,5-9.14,8.76Z" transform="translate(-8.75 -3.41)" fill="#fff"/><path d="M341,39.72h-.44c.11,7.55,5.59,10.78,11.67,10.73a23.88,23.88,0,0,0,9.23-1.56l-.16-.41-.43.11,1,3.86.42-.11-.16-.42a28.41,28.41,0,0,1-10.73,1.81c-9.9,0-15.63-5.78-15.66-14.5s5.62-15.54,14.92-15.56c5.23,0,8.44,2.06,10.41,4.76a15.26,15.26,0,0,1,2.68,8.77,17.87,17.87,0,0,1-.2,2.46l.44,0v-.44H340.56v.45H341v.45h23.4l0-.39a20.22,20.22,0,0,0,.2-2.57,16.11,16.11,0,0,0-2.84-9.29c-2.12-2.92-5.67-5.13-11.13-5.12a15.33,15.33,0,0,0-11.59,4.78,17,17,0,0,0-4.22,11.66,15,15,0,0,0,4.41,11.15c2.86,2.71,7,4.24,12.14,4.24a29.34,29.34,0,0,0,11.06-1.87l.36-.15-1.11-4.23-.13-.48-.46.17a23,23,0,0,1-8.91,1.51c-5.82,0-10.63-2.82-10.79-9.86H341v0Zm17.46-3.86h.44v-.22a10,10,0,0,0-1.75-5.82,8.07,8.07,0,0,0-7-3.17c-6.32,0-9.1,5.29-9.58,9.15l-.06.49H358.9v-.43h-.44v-.44h-17.4v.44l.45.06c.47-3.62,3-8.38,8.69-8.38,3.17,0,5.06,1.21,6.23,2.81a9.2,9.2,0,0,1,1.58,5.3v.2h.45v0Z" transform="translate(-8.75 -3.41)" fill="#fff"/><path d="M370.47,12.82A62.93,62.93,0,0,1,381.23,12c5.89,0,9.68.91,12.52,3a8.37,8.37,0,0,1,3.79,7.29c0,4-2.91,7.48-7.71,9.07v.12c4.33,1,9.41,4.23,9.41,10.36a10.67,10.67,0,0,1-3.86,8.27c-3.18,2.63-8.33,3.86-15.78,3.86a74.89,74.89,0,0,1-9.13-.49Zm5.89,16.92h5.34c6.23,0,9.88-2.94,9.88-6.93,0-4.84-4.06-6.74-10-6.74a27.2,27.2,0,0,0-5.21.37Zm0,19.79a35.41,35.41,0,0,0,4.94.24c6.09,0,11.71-2,11.71-8,0-5.64-5.35-8-11.78-8h-4.87Z" transform="translate(-8.75 -3.41)" fill="#fff"/><path d="M370.47,12.82l.08.44a62.84,62.84,0,0,1,10.68-.85c5.85,0,9.53.91,12.26,2.92h0a8,8,0,0,1,3.6,6.93c0,3.75-2.74,7.09-7.41,8.65l-.3.1v.8l.34.07c4.22,1,9.07,4.09,9.06,9.93a10.2,10.2,0,0,1-3.71,7.94l.3.33-.28-.34c-3.05,2.52-8.09,3.76-15.5,3.76a73.8,73.8,0,0,1-9.08-.49l0,.44h.44V12.82h-.44l.08.44-.08-.44H370v41l.38,0a76.19,76.19,0,0,0,9.19.49c7.49,0,12.74-1.22,16.06-4h0a11.11,11.11,0,0,0,4-8.6c0-6.42-5.32-9.8-9.75-10.79l-.1.43h.44v-.12h-.44l.14.42c4.93-1.63,8-5.27,8-9.49a8.83,8.83,0,0,0-4-7.66l-.25.37.26-.36c-2.95-2.16-6.85-3.09-12.78-3.09a62.86,62.86,0,0,0-10.84.87l-.36.07v.36Zm5.89,16.92v.44h5.34a12.74,12.74,0,0,0,7.54-2.05A6.42,6.42,0,0,0,392,22.81a6.14,6.14,0,0,0-3-5.56,14.39,14.39,0,0,0-7.47-1.62,27.41,27.41,0,0,0-5.3.38l-.35.07v14.1h.44v-.44h.44V16.44h-.44l.08.43a27.13,27.13,0,0,1,5.13-.36,13.62,13.62,0,0,1,7,1.5,5.21,5.21,0,0,1,2.56,4.8c0,3.66-3.32,6.45-9.44,6.48h-5.34v.45h0Zm0,19.79-.07.43a33.41,33.41,0,0,0,5,.26,17,17,0,0,0,8.36-1.82,7.28,7.28,0,0,0,3.79-6.65,7.22,7.22,0,0,0-3.69-6.48,16.77,16.77,0,0,0-8.53-1.93h-5.31V49.9l.37.06.07-.43h.44V34.22h4.43A16,16,0,0,1,389.3,36a6.32,6.32,0,0,1,3.26,5.72,6.36,6.36,0,0,1-3.35,5.88,16.12,16.12,0,0,1-7.91,1.7,33.94,33.94,0,0,1-4.87-.24l-.07.44h0Z" transform="translate(-8.75 -3.41)" fill="#fff"/><path d="M405.68,12.82A93.26,93.26,0,0,1,418.2,12c8.46,0,14.49,1.77,18.48,5.14s6.43,8.15,6.43,14.83S440.81,44.2,436.55,48s-11.31,5.94-20.17,5.94a104,104,0,0,1-10.7-.49Zm5.89,36.53a42,42,0,0,0,6,.3c12.59,0,19.42-6.37,19.42-17.52.07-9.75-6-15.94-18.47-15.94a37.51,37.51,0,0,0-6.91.55Z" transform="translate(-8.75 -3.41)" fill="#fff"/><path d="M405.68,12.82l.06.44a94.1,94.1,0,0,1,12.46-.85c8.41,0,14.32,1.76,18.2,5s6.26,7.92,6.27,14.49-2.26,12-6.42,15.73-11.07,5.83-19.87,5.83A102.92,102.92,0,0,1,405.73,53l-.05.44h.44V12.82h-.44l.06.44-.06-.44h-.44v41l.4,0a105,105,0,0,0,10.74.49c8.93,0,16.07-2.09,20.46-6.05s6.72-9.55,6.72-16.39S441.12,20.21,437,16.77s-10.25-5.25-18.77-5.25a92.32,92.32,0,0,0-12.58.87l-.38,0v.38Zm5.89,36.53-.07.43a40.32,40.32,0,0,0,6,.31c6.36,0,11.34-1.61,14.73-4.69s5.14-7.61,5.13-13.27V32c0-4.91-1.55-9-4.74-11.83s-7.91-4.38-14.17-4.38a38.73,38.73,0,0,0-7,.55l-.35.08V49.72l.37.06.07-.43H412V16.74h-.44l.09.44a36.31,36.31,0,0,1,6.82-.55c6.12,0,10.62,1.52,13.58,4.16s4.45,6.44,4.45,11.17v.16c0,5.5-1.67,9.73-4.85,12.62s-7.91,4.47-14.13,4.47a40.49,40.49,0,0,1-5.89-.3l-.07.44h0Z" transform="translate(-8.75 -3.41)" fill="#fff"/></svg>